<?xml version="1.0" encoding="UTF-8" standalone="no"?>
<!-- Created with Inkscape (http://www.inkscape.org/) -->
<svg xmlns:rdf="http://www.w3.org/1999/02/22-rdf-syntax-ns#" xmlns="http://www.w3.org/2000/svg" xmlns:cc="http://creativecommons.org/ns#" xmlns:xlink="http://www.w3.org/1999/xlink" xmlns:dc="http://purl.org/dc/elements/1.1/" xmlns:svg="http://www.w3.org/2000/svg" xmlns:inkscape="http://www.inkscape.org/namespaces/inkscape" xmlns:sodipodi="http://sodipodi.sourceforge.net/DTD/sodipodi-0.dtd" xmlns:ns1="http://sozi.baierouge.fr" id="svg2" viewBox="0 0 340.7 299.09" version="1.1" inkscape:version="0.91 r13725">
  <defs id="defs3">
    <filter id="filter4046" height="2.1076" width="1.3171" color-interpolation-filters="sRGB" y="-.55379" x="-.15855">
      <feGaussianBlur id="feGaussianBlur4048" stdDeviation="22.744847"/>
    </filter>
    <filter id="filter4139" height="1.2991" width="2.0688" color-interpolation-filters="sRGB" y="-.14956" x="-.53438">
      <feGaussianBlur id="feGaussianBlur4141" stdDeviation="3.9028105"/>
    </filter>
    <filter id="filter4046-2" height="2.1076" width="1.3171" color-interpolation-filters="sRGB" y="-.55379" x="-.15855">
      <feGaussianBlur id="feGaussianBlur4048-7" stdDeviation="22.744847"/>
    </filter>
    <radialGradient id="radialGradient4227" gradientUnits="userSpaceOnUse" cy="848.47" cx="297.55" gradientTransform="matrix(1 0 0 .46457 0 433.05)" r="90.714">
      <stop id="stop4015" style="stop-color:#ffffb1" offset="0"/>
      <stop id="stop4021" style="stop-color:#baba18" offset=".46462"/>
      <stop id="stop4017" style="stop-color:#f1f33c" offset="1"/>
    </radialGradient>
    <radialGradient id="radialGradient4229" gradientUnits="userSpaceOnUse" cy="808.41" cx="299.47" gradientTransform="matrix(1.0126 .0094876 -.0033272 .47446 -.63454 421.63)" r="93.084">
      <stop id="stop4029" style="stop-color:#f0f000" offset="0"/>
      <stop id="stop4035" style="stop-color:#ffff77" offset="0.945"/>
      <stop id="stop4037" style="stop-color:#fae47c" offset=".98493"/>
      <stop id="stop4031" style="stop-color:#ffff6f" offset="1"/>
    </radialGradient>
    <filter id="filter4046-2-1" height="2.1076" width="1.3171" color-interpolation-filters="sRGB" y="-.55379" x="-.15855">
      <feGaussianBlur id="feGaussianBlur4048-7-4" stdDeviation="22.744847"/>
    </filter>
    <filter id="filter4139-9" height="1.2991" width="2.0688" color-interpolation-filters="sRGB" y="-.14956" x="-.53438">
      <feGaussianBlur id="feGaussianBlur4141-2" stdDeviation="3.9028105"/>
    </filter>
    <radialGradient id="radialGradient4369" gradientUnits="userSpaceOnUse" cy="177.4" cx="304.47" gradientTransform="matrix(.80829 .080013 -.15881 1.6043 597.86 -43.713)" r="53.232">
      <stop id="stop4058" style="stop-color:#fffdec" offset="0"/>
      <stop id="stop4060" style="stop-color:#ffea00" offset=".42857"/>
      <stop id="stop4062" style="stop-color:#f1b100;stop-opacity:.65649" offset="1"/>
    </radialGradient>
    <radialGradient id="radialGradient4383" gradientUnits="userSpaceOnUse" cy="180.27" cx="302.55" gradientTransform="matrix(.80958 .061973 -.12098 1.5208 81.357 -84.625)" r="53.232">
      <stop id="stop3992" style="stop-color:#ffec6b" offset="0"/>
      <stop id="stop4000" style="stop-color:#ffaf00" offset=".12802"/>
      <stop id="stop3998" style="stop-color:#f18500" offset=".68379"/>
      <stop id="stop3994" style="stop-color:#fd5c1f" offset="1"/>
    </radialGradient>
    <linearGradient id="linearGradient3113" y2="199.49" gradientUnits="userSpaceOnUse" x2="316.81" gradientTransform="matrix(.75247 0 0 .80908 -117.8 -34.43)" y1="250.42" x1="306.21">
      <stop id="stop4007" style="stop-color:#803300" offset="0"/>
      <stop id="stop4009" style="stop-color:#803300;stop-opacity:0" offset="1"/>
    </linearGradient>
    <linearGradient id="linearGradient3118" y2="652.6" gradientUnits="userSpaceOnUse" x2="196.1" gradientTransform="translate(-87.131 -103.96)" y1="330.36" x1="201.66">
      <stop id="stop4118" style="stop-color:#ffffff;stop-opacity:.28244" offset="0"/>
      <stop id="stop4120" style="stop-color:#040404;stop-opacity:.41221" offset="1"/>
    </linearGradient>
    <linearGradient id="linearGradient3121" y2="539" gradientUnits="userSpaceOnUse" x2="402.03" gradientTransform="matrix(.75247 0 0 .68173 -114.76 -4.6859)" y1="539" x1="200">
      <stop id="stop3977" style="stop-color:#c0c210" offset="0"/>
      <stop id="stop3985" style="stop-color:#ffffa5" offset=".25"/>
      <stop id="stop3983" style="stop-color:#d6d600" offset=".5"/>
      <stop id="stop3979" style="stop-color:#909211" offset="1"/>
    </linearGradient>
    <radialGradient id="radialGradient3903" gradientUnits="userSpaceOnUse" cy="307.85" cx="806.18" gradientTransform="matrix(.75220 .018395 -.0063163 0.212 16.189 117.16)" r="120.34">
      <stop id="stop3849" style="stop-color:#18187c" offset="0"/>
      <stop id="stop3855" style="stop-color:#7272ff" offset=".42857"/>
      <stop id="stop3851" style="stop-color:#7272ff" offset="1"/>
    </radialGradient>
    <radialGradient id="radialGradient3932" gradientUnits="userSpaceOnUse" cy="654.16" cx="321.78" gradientTransform="matrix(.99829 .012776 -.0034648 .27072 2.9063 491.08)" r="90.178">
      <stop id="stop4333" style="stop-color:#560056" offset="0"/>
      <stop id="stop4339" style="stop-color:#a300a3" offset=".42305"/>
      <stop id="stop4335" style="stop-color:#a300a3" offset="1"/>
    </radialGradient>
    <radialGradient id="radialGradient3934" gradientUnits="userSpaceOnUse" cy="176.83" cx="315.99" gradientTransform="matrix(.80829 .080013 -.15881 1.6043 597.86 -43.713)" r="53.232">
      <stop id="stop4058-5" style="stop-color:#fffdec" offset="0"/>
      <stop id="stop4060-7" style="stop-color:#ffea00" offset=".42857"/>
      <stop id="stop4062-6" style="stop-color:#f1b100;stop-opacity:.65649" offset="1"/>
    </radialGradient>
    <filter id="filter3886" color-interpolation-filters="sRGB">
      <feGaussianBlur id="feGaussianBlur3888" stdDeviation="1.6038524"/>
    </filter>
    <filter id="filter3890" color-interpolation-filters="sRGB">
      <feGaussianBlur id="feGaussianBlur3892" stdDeviation="1.3542483"/>
    </filter>
    <filter id="filter3898" color-interpolation-filters="sRGB">
      <feGaussianBlur id="feGaussianBlur3900" stdDeviation="1.2656431"/>
    </filter>
  </defs>
  <g id="layer1" transform="translate(-93.131 -59)">
    <g id="g3907" transform="matrix(.52688 0 0 .52688 203.63 51.353)">
      <path id="path3811" style="filter:url(#filter4046);fill:#000000" d="m461.43 790.22a172.14 49.286 0 1 1 -344.29 0 172.14 49.286 0 1 1 344.29 0z" transform="matrix(.50302 0 0 .57598 -30.745 67.199)"/>
      <path id="rect2984" style="fill:url(#linearGradient3121)" d="m35.737 175.59v347.09h0.16461c2.0069 15.19 35.178 27.269 75.835 27.269s73.852-12.079 75.859-27.269h0.16461v-347.09h-152.02z"/>
      <path id="path4114" style="fill:url(#linearGradient3118)" d="m35.737 175.59v347.09h0.16461c2.0069 15.19 35.178 27.269 75.835 27.269s73.852-12.079 75.859-27.269h0.16461v-347.09h-152.02z"/>
      <path id="path3934-7" style="stroke:url(#radialGradient4229);stroke-width:2.8361;fill:url(#radialGradient4227)" d="m388.57 808.79a90.714 42.143 0 1 1 -181.43 0 90.714 42.143 0 1 1 181.43 0z" transform="matrix(.84194 0 0 .68173 -138.41 -375.94)"/>
      <path id="rect4002" style="fill:url(#linearGradient3113)" d="m114.41 130.9c8.5619-7.1921 5.3877-1.9675 7.528 0.28896-8.9587 13.001-5.3803 33.567-5.2404 54.47 0.30125 2.7567-11.044 3.9266-11.022 0 2.2699-18.828 0.69461-41.101 8.7341-54.759z"/>
      <path id="path3987" style="filter:url(#filter3890);fill:url(#radialGradient4383)" d="m329.8 122.9c12.104 43.511 4.4524 123.03-23.728 124.37-28.705 1.3627-52.058-42.955-41.581-69.851 12.47-32.014 39.883-71.234 30.129-133.66 22.648 33.142 23.076 35.625 35.18 79.136z" transform="matrix(.75247 0 0 .68173 -111.73 -12.767)"/>
    </g>
    <g id="g3915" transform="matrix(.52688 0 0 .52688 46.634 69.387)">
      <path id="path3811-6" style="filter:url(#filter4046-2);fill:#000000" d="m461.43 790.22a172.14 49.286 0 1 1 -344.29 0 172.14 49.286 0 1 1 344.29 0z" transform="matrix(.50302 0 0 .57598 475.32 32.971)"/>
      <path id="rect3041" style="fill:#0000ff" d="m543.55 184.61h152.64v296.07c0.60961 38.167-151.16 38.588-152.64 0z"/>
      <path id="path3835" style="fill:url(#radialGradient3903)" d="m545.9 177.74c-17.5 15.226-34.34 104.96 2.6874 121.74 30.482 13.808 14.378-75.598 24.724-66.225 2.2761 2.0622 5.8396 5.2906 8.5997 7.7912 5.2722 4.7765 15.07-7.5523 18.274-8.2782 11.779-2.6678 60.178 12.698 73.097-10.713 3.5616-6.4536 14.802 31.36 18.812 32.626 13.153 4.1526 8.1653-13.732 9.6747-18.017 22.276-63.249-20.059-66.225-81.697-66.225-26.08 0-55.766-8.7104-74.172 7.3043z"/>
      <path id="rect4002-1" style="fill:#803300" d="m619.89 140.79c-6.5904-11.233 5.8928-4.998 8.0331-2.7415-4.6441 6.7396 7.2128 18.038 7.0814 27.836-0.12212 9.1033-6.5808 19.597-6.5135 29.664 0.30125 2.7567-11.044 3.9266-11.022 0 1.1799-9.7865 8.6445-21.009 9.6368-30.964 0.91679-9.1964-3.2481-14.964-7.2162-23.795z"/>
      <path id="path3987-7" style="filter:url(#filter3886);fill:url(#radialGradient4369)" d="m857 218.86c30.258 33.395-12.897 89.839-41.629 89.839-28.731 0-59.993-30.48-52.023-65.66 8.2159-36.263 41.159-95.596 22.821-155.2 38.152 46.351 40.572 97.621 70.83 131.02z" transform="matrix(-.75247 0 0 .68173 1243.5 -44.331)"/>
      <path id="path4132" style="filter:url(#filter4139);fill:#ffffff" d="m550.12 209.32c0 18.131-1.5301 38.891-4.0406 38.891s-4.0406-24.295-4.0406-42.426 14.662-20.203 17.173-20.203c2.5105 0-9.0914 5.6071-9.0914 23.739z"/>
    </g>
    <g id="g3923" transform="matrix(.52688 0 0 .52688 -39.842 -177.44)">
      <path id="path3811-6-9" style="filter:url(#filter4046-2-1);fill:#000000" d="m461.43 790.22a172.14 49.286 0 1 1 -344.29 0 172.14 49.286 0 1 1 344.29 0z" transform="matrix(.50302 0 0 .57598 220.91 501.44)"/>
      <g id="g4401" transform="translate(54.286 -8.5714)">
        <path id="rect3041-5" style="fill:#8f008f" d="m242.72 663.08h152.64v296.07c0.60961 38.167-151.16 38.588-152.64 0z"/>
        <path id="path3835-4" style="fill:url(#radialGradient3932)" d="m245.07 656.21c-12.035 11.586-13.044 30.621-16.128 46.812-3.0071 19.792-4.554 41.219 4.0058 59.903 4.1494 8.3953 12.225 16.714 22.214 16.351 8.6414-2.2611 9.9748-12.934 11.344-20.355 2.3183-14.944 0.74633-30.183 2.7841-45.128 1.1981-5.8419 5.5157 0.41978 7.8238 2.1267 3.1814 3.7172 8.2033 6.7676 12.554 2.4449 6.0195-6.8424 14.374-8.8684 23.076-6.7646 16.61 1.5412 34.473 5.0132 50.269-2.1545 6.253-1.517 10.587-15.729 14.574-4.4707 4.7604 8.9431 7.3631 18.979 12.845 27.527 11.147 5.787 10.704-10.43 10.508-17.371 4.8664-14.591 9.7486-31.718 1.9081-46.187-8.2419-13.354-25.027-16.503-39.423-18.335-24.046-2.6311-48.286-1.0041-72.391-2.6827-15.591-0.4752-34.388-2.8599-45.964 8.2832z"/>
        <path id="rect4002-1-3" style="fill:#803300" d="m326.03 617.83c6.5904-11.233-5.8928-4.998-8.0331-2.7415 4.6441 6.7396-7.2128 18.038-7.0814 27.836 0.12212 9.1033 6.5808 19.597 6.5135 29.664-0.30125 2.7567 11.044 3.9266 11.022 0-1.1799-9.7865-8.6445-21.009-9.6368-30.964-0.91679-9.1964 3.2481-14.964 7.2162-23.795z"/>
        <path id="path3987-7-1" style="filter:url(#filter3898);fill:url(#radialGradient3934)" d="m857 218.86c6.6425 29.06 16.864 107.27-41.629 89.839-27.738-8.2666-22.973-75.534-15.002-110.71 8.2159-36.263 13.631-17.015 16.177-77.662 38.152 46.351 35.123 75.21 40.454 98.535z" transform="matrix(-.75247 0 0 .68173 934.07 435.85)"/>
        <path id="path4132-2" style="filter:url(#filter4139-9);fill:#ffffff" d="m249.29 687.78c0 18.131-1.5301 38.891-4.0406 38.891s-4.0406-24.295-4.0406-42.426 14.662-20.203 17.173-20.203c2.5105 0-9.0914 5.6071-9.0914 23.739z"/>
      </g>
    </g>
  </g>
  <metadata>
    <rdf:RDF>
      <cc:Work>
        <dc:format>image/svg+xml</dc:format>
        <dc:type rdf:resource="http://purl.org/dc/dcmitype/StillImage"/>
        <cc:license rdf:resource="http://creativecommons.org/licenses/publicdomain/"/>
        <dc:publisher>
          <cc:Agent rdf:about="http://openclipart.org/">
            <dc:title>Openclipart</dc:title>
          </cc:Agent>
        </dc:publisher>
        <dc:title>candles</dc:title>
        <dc:date>2013-01-20T18:28:11</dc:date>
        <dc:description/>
        <dc:source>https://openclipart.org/detail/174363/candles-by-jarda-174363</dc:source>
        <dc:creator>
          <cc:Agent>
            <dc:title>jarda</dc:title>
          </cc:Agent>
        </dc:creator>
        <dc:subject>
          <rdf:Bag>
            <rdf:li>blue</rdf:li>
            <rdf:li>candle</rdf:li>
            <rdf:li>magenta</rdf:li>
            <rdf:li>yellow</rdf:li>
          </rdf:Bag>
        </dc:subject>
      </cc:Work>
      <cc:License rdf:about="http://creativecommons.org/licenses/publicdomain/">
        <cc:permits rdf:resource="http://creativecommons.org/ns#Reproduction"/>
        <cc:permits rdf:resource="http://creativecommons.org/ns#Distribution"/>
        <cc:permits rdf:resource="http://creativecommons.org/ns#DerivativeWorks"/>
      </cc:License>
    </rdf:RDF>
  </metadata>
</svg>
