<?xml version="1.0" encoding="UTF-8" standalone="no"?>
<!-- Created with Inkscape (http://www.inkscape.org/) -->

<svg
   xmlns:dc="http://purl.org/dc/elements/1.1/"
   xmlns:cc="http://creativecommons.org/ns#"
   xmlns:rdf="http://www.w3.org/1999/02/22-rdf-syntax-ns#"
   xmlns:svg="http://www.w3.org/2000/svg"
   xmlns="http://www.w3.org/2000/svg"
   xmlns:sodipodi="http://sodipodi.sourceforge.net/DTD/sodipodi-0.dtd"
   xmlns:inkscape="http://www.inkscape.org/namespaces/inkscape"
   width="64"
   height="64"
   id="svg2"
   version="1.1"
   inkscape:version="0.48.3.1 r9886"
   sodipodi:docname="icon-64.svg"
   inkscape:export-filename="C:\Users\kek\Documents\working\git\gebu\gebu\src\main\resources\images\icon-64.png"
   inkscape:export-xdpi="90"
   inkscape:export-ydpi="90">
  <defs
     id="defs4" />
  <sodipodi:namedview
     id="base"
     pagecolor="#ffffff"
     bordercolor="#666666"
     borderopacity="1.0"
     inkscape:pageopacity="0.0"
     inkscape:pageshadow="2"
     inkscape:zoom="14.71875"
     inkscape:cx="21.401274"
     inkscape:cy="32"
     inkscape:document-units="px"
     inkscape:current-layer="layer1"
     showgrid="false"
     inkscape:window-width="1920"
     inkscape:window-height="1153"
     inkscape:window-x="1916"
     inkscape:window-y="-4"
     inkscape:window-maximized="1" />
  <metadata
     id="metadata7">
    <rdf:RDF>
      <cc:Work
         rdf:about="">
        <dc:format>image/svg+xml</dc:format>
        <dc:type
           rdf:resource="http://purl.org/dc/dcmitype/StillImage" />
        <dc:title />
      </cc:Work>
    </rdf:RDF>
  </metadata>
  <g
     inkscape:label="Layer 1"
     inkscape:groupmode="layer"
     id="layer1"
     transform="translate(0,-988.36218)">
    <path
       style="fill:#7cab31;fill-opacity:1;stroke:none"
       d="m 3.6664753,1024.1783 c -2.03226,0 -3.66477005,1.6374 -3.66477005,3.6696 l 0,2.0963 0,3.0588 0,3.6697 3.66477005,0 56.6670497,0 3.66477,0 0,-3.6697 0,-3.0588 0,-2.0963 c 0,-2.0322 -1.63251,-3.6696 -3.66477,-3.6696 l -56.6670497,0 z"
       id="rect2985"
       inkscape:connector-curvature="0" />
    <rect
       y="1041.1595"
       x="0"
       height="11.202613"
       width="64"
       id="rect2987"
       style="fill:#7cab31;fill-opacity:1;stroke:none" />
    <rect
       style="fill:#8cbd1e;fill-opacity:1;stroke:none"
       id="rect2992"
       width="11.753716"
       height="15.014862"
       x="26.123142"
       y="1009.2314" />
    <path
       style="fill:#8cbd1e;fill-opacity:1;stroke:none"
       d="m 32.158027,988.36218 c 0,0 -2.603431,8.42287 -5.538389,13.09322 -1.292085,2.0561 2.784928,5.2173 5.538389,5.1827 2.682561,-0.033 6.488203,-3.1857 5.215766,-5.1827 -2.948352,-4.62715 -5.215766,-13.09322 -5.215766,-13.09322 z"
       id="path3000"
       inkscape:connector-curvature="0"
       sodipodi:nodetypes="csssc" />
  </g>
</svg>
