<?xml version="1.0" encoding="UTF-8" standalone="no"?>
<!-- Created with Inkscape (http://www.inkscape.org/) -->

<svg
   xmlns:dc="http://purl.org/dc/elements/1.1/"
   xmlns:cc="http://creativecommons.org/ns#"
   xmlns:rdf="http://www.w3.org/1999/02/22-rdf-syntax-ns#"
   xmlns:svg="http://www.w3.org/2000/svg"
   xmlns="http://www.w3.org/2000/svg"
   xmlns:xlink="http://www.w3.org/1999/xlink"
   xmlns:sodipodi="http://sodipodi.sourceforge.net/DTD/sodipodi-0.dtd"
   xmlns:inkscape="http://www.inkscape.org/namespaces/inkscape"
   width="507.42044"
   height="316.16"
   id="svg2"
   sodipodi:version="0.32"
   inkscape:version="0.91 r"
   sodipodi:docname="logo.svg"
   inkscape:output_extension="org.inkscape.output.svg.inkscape"
   version="1.0"
   inkscape:export-filename="/home/ekleinod/working/git/gebu/gebu/src/main/resources/images/logo.png"
   inkscape:export-xdpi="90"
   inkscape:export-ydpi="90"
   sodipodi:modified="TRUE">
  <defs
     id="defs4">
    <linearGradient
       inkscape:collect="always"
       id="linearGradient7481">
      <stop
         style="stop-color:#000000;stop-opacity:1;"
         offset="0"
         id="stop7483" />
      <stop
         style="stop-color:#000080;stop-opacity:0"
         offset="1"
         id="stop7485" />
    </linearGradient>
    <linearGradient
       inkscape:collect="always"
       id="linearGradient7473">
      <stop
         style="stop-color:#d40000;stop-opacity:1;"
         offset="0"
         id="stop7475" />
      <stop
         style="stop-color:#d40000;stop-opacity:0;"
         offset="1"
         id="stop7477" />
    </linearGradient>
    <linearGradient
       inkscape:collect="always"
       xlink:href="#linearGradient7481"
       id="linearGradient7489"
       x1="434.57452"
       y1="731.76312"
       x2="315.10406"
       y2="850.92352"
       gradientUnits="userSpaceOnUse" />
    <linearGradient
       inkscape:collect="always"
       xlink:href="#linearGradient7473"
       id="linearGradient7491"
       x1="315.32452"
       y1="850.78381"
       x2="434.38531"
       y2="731.67352"
       gradientUnits="userSpaceOnUse" />
    <filter
       style="color-interpolation-filters:sRGB"
       inkscape:label="Blur"
       id="filter4207">
      <feGaussianBlur
         stdDeviation="5 5"
         result="blur"
         id="feGaussianBlur4209" />
    </filter>
    <filter
       style="color-interpolation-filters:sRGB"
       inkscape:label="Blur"
       id="filter4384">
      <feGaussianBlur
         stdDeviation="2 2"
         result="blur"
         id="feGaussianBlur4386" />
    </filter>
    <filter
       style="color-interpolation-filters:sRGB"
       inkscape:label="Blur"
       id="filter4388">
      <feGaussianBlur
         stdDeviation="2 2"
         result="blur"
         id="feGaussianBlur4390" />
    </filter>
    <filter
       style="color-interpolation-filters:sRGB"
       inkscape:label="Blur"
       id="filter4396">
      <feGaussianBlur
         stdDeviation="2 2"
         result="blur"
         id="feGaussianBlur4398" />
    </filter>
  </defs>
  <sodipodi:namedview
     id="base"
     pagecolor="#aaaaaa"
     bordercolor="#666666"
     borderopacity="1.0"
     inkscape:pageopacity="0"
     inkscape:pageshadow="2"
     inkscape:zoom="1.875"
     inkscape:cx="179.82044"
     inkscape:cy="116.16001"
     inkscape:document-units="px"
     inkscape:current-layer="layer3"
     inkscape:window-width="1680"
     inkscape:window-height="973"
     inkscape:window-x="0"
     inkscape:window-y="25"
     width="20px"
     height="20px"
     showgrid="false"
     inkscape:window-maximized="1"
     fit-margin-top="0"
     fit-margin-left="0"
     fit-margin-right="0"
     fit-margin-bottom="0" />
  <metadata
     id="metadata7">
    <rdf:RDF>
      <cc:Work
         rdf:about="">
        <dc:format>image/svg+xml</dc:format>
        <dc:type
           rdf:resource="http://purl.org/dc/dcmitype/StillImage" />
        <dc:title />
      </cc:Work>
    </rdf:RDF>
  </metadata>
  <g
     inkscape:label="Ebene 1"
     inkscape:groupmode="layer"
     id="layer1"
     transform="translate(7.4204426,380)"
     style="display:inline">
    <text
       sodipodi:linespacing="125%"
       id="text4336"
       y="-320.17453"
       x="27.043428"
       style="font-style:normal;font-variant:normal;font-weight:normal;font-stretch:normal;font-size:50px;line-height:125%;font-family:'Linux Libertine OC';-inkscape-font-specification:'Linux Libertine OC, Normal';text-align:start;letter-spacing:0px;word-spacing:0px;writing-mode:lr-tb;text-anchor:start;fill:#000000;fill-opacity:1;stroke:none;stroke-width:1px;stroke-linecap:butt;stroke-linejoin:miter;stroke-opacity:1;filter:url(#filter4384)"
       xml:space="preserve"><tspan
         id="tspan4338"
         y="-320.17453"
         x="27.043428"
         sodipodi:role="line">Das</tspan></text>
    <text
       xml:space="preserve"
       style="font-style:normal;font-variant:normal;font-weight:normal;font-stretch:normal;font-size:50px;line-height:125%;font-family:'Linux Libertine OC';-inkscape-font-specification:'Linux Libertine OC, Normal';text-align:start;letter-spacing:0px;word-spacing:0px;writing-mode:lr-tb;text-anchor:start;fill:#000000;fill-opacity:1;stroke:none;stroke-width:1px;stroke-linecap:butt;stroke-linejoin:miter;stroke-opacity:1;filter:url(#filter4388)"
       x="26.4037"
       y="-272.27686"
       id="text4340"
       sodipodi:linespacing="125%"><tspan
         sodipodi:role="line"
         x="26.4037"
         y="-272.27686"
         id="tspan4342">Gebu-Programm</tspan></text>
    <path
       inkscape:connector-curvature="0"
       inkscape:export-ydpi="90"
       inkscape:export-xdpi="90"
       inkscape:export-filename="/home/ekleinod/working/internet/edgesoft.de/working/images/icon.png"
       id="path4165"
       d="m 344.194,-353.65333 -38.03797,38.59482 76.07595,0 -38.03798,-38.59482 z m 38.03798,38.59482 15.24241,15.46553 23.27189,0 0,23.61259 15.2424,15.46553 0,-54.54365 -53.7567,0 z m 53.7567,54.54365 0,77.18968 38.03797,-38.59482 -38.03797,-38.59486 z m 0,77.18968 -15.2424,15.46554 0,23.61258 -23.27189,0 -15.24241,15.46554 53.7567,0 0,-54.54366 z m -53.7567,54.54366 -76.07595,0 38.03797,38.594853 38.03798,-38.594853 z m -76.07595,0 -15.2424,-15.46554 -23.33994,0 0,-23.61258 -15.2424,-15.46554 0,54.54366 53.82474,0 z m -53.82474,-54.54366 0,-77.18968 -38.03798,38.59486 38.03798,38.59482 z m 0,-77.18968 15.2424,-15.46553 0,-23.61259 23.33994,0 15.2424,-15.46553 -53.82474,0 0,54.54365 z m 38.58234,-39.07812 -23.33994,23.61259 0,108.12075 23.33994,23.61258 106.56076,0 23.27189,-23.61258 0,-108.12075 -23.27189,-23.61259 -106.56076,0 z m 53.28037,0.34539 28.57953,28.99793 19.053,0 0,19.40098 28.51147,28.92885 -28.51147,28.92889 0,19.40094 -19.053,0 -28.57953,28.99788 -28.5795,-28.99788 -19.12106,0 0,-19.40094 -28.51147,-28.92889 28.51147,-28.92885 0,-19.40098 19.12106,0 28.5795,-28.99793 z m -28.5795,28.99793 -19.12106,19.40098 0,57.85774 19.12106,19.40094 57.15903,0 19.053,-19.40094 0,-57.85774 -19.053,-19.40098 -57.15903,0 z m 28.5795,0.34539 47.22425,47.9846 -47.22425,47.98461 -47.29228,-47.98461 47.29228,-47.9846 z"
       style="fill:#000000;fill-opacity:1;fill-rule:evenodd;stroke:none;filter:url(#filter4207)" />
    <text
       xml:space="preserve"
       style="font-style:normal;font-variant:normal;font-weight:normal;font-stretch:normal;font-size:50px;line-height:125%;font-family:'Linux Libertine OC';-inkscape-font-specification:'Linux Libertine OC, Normal';text-align:start;letter-spacing:0px;word-spacing:0px;writing-mode:lr-tb;text-anchor:start;fill:#000050;fill-opacity:1;stroke:none;stroke-width:1px;stroke-linecap:butt;stroke-linejoin:miter;stroke-opacity:1"
       x="27.043428"
       y="-320.17453"
       id="text3342"
       sodipodi:linespacing="125%"><tspan
         sodipodi:role="line"
         x="27.043428"
         y="-320.17453"
         id="tspan3346">Das</tspan></text>
    <text
       sodipodi:linespacing="125%"
       id="text3345"
       y="-272.27686"
       x="26.4037"
       style="font-style:normal;font-variant:normal;font-weight:normal;font-stretch:normal;font-size:50px;line-height:125%;font-family:'Linux Libertine OC';-inkscape-font-specification:'Linux Libertine OC, Normal';text-align:start;letter-spacing:0px;word-spacing:0px;writing-mode:lr-tb;text-anchor:start;fill:#000050;fill-opacity:1;stroke:none;stroke-width:1px;stroke-linecap:butt;stroke-linejoin:miter;stroke-opacity:1"
       xml:space="preserve"><tspan
         id="tspan3349"
         y="-272.27686"
         x="26.4037"
         sodipodi:role="line">Gebu-Programm</tspan></text>
    <path
       style="fill:#000050;fill-opacity:1;fill-rule:evenodd;stroke:none"
       d="m 344.194,-353.65333 -38.03797,38.59482 76.07595,0 -38.03798,-38.59482 z m 38.03798,38.59482 15.24241,15.46553 23.27189,0 0,23.61259 15.2424,15.46553 0,-54.54365 -53.7567,0 z m 53.7567,54.54365 0,77.18968 38.03797,-38.59482 -38.03797,-38.59486 z m 0,77.18968 -15.2424,15.46554 0,23.61258 -23.27189,0 -15.24241,15.46554 53.7567,0 0,-54.54366 z m -53.7567,54.54366 -76.07595,0 38.03797,38.594853 38.03798,-38.594853 z m -76.07595,0 -15.2424,-15.46554 -23.33994,0 0,-23.61258 -15.2424,-15.46554 0,54.54366 53.82474,0 z m -53.82474,-54.54366 0,-77.18968 -38.03798,38.59486 38.03798,38.59482 z m 0,-77.18968 15.2424,-15.46553 0,-23.61259 23.33994,0 15.2424,-15.46553 -53.82474,0 0,54.54365 z m 38.58234,-39.07812 -23.33994,23.61259 0,108.12075 23.33994,23.61258 106.56076,0 23.27189,-23.61258 0,-108.12075 -23.27189,-23.61259 -106.56076,0 z m 53.28037,0.34539 28.57953,28.99793 19.053,0 0,19.40098 28.51147,28.92885 -28.51147,28.92889 0,19.40094 -19.053,0 -28.57953,28.99788 -28.5795,-28.99788 -19.12106,0 0,-19.40094 -28.51147,-28.92889 28.51147,-28.92885 0,-19.40098 19.12106,0 28.5795,-28.99793 z m -28.5795,28.99793 -19.12106,19.40098 0,57.85774 19.12106,19.40094 57.15903,0 19.053,-19.40094 0,-57.85774 -19.053,-19.40098 -57.15903,0 z m 28.5795,0.34539 47.22425,47.9846 -47.22425,47.98461 -47.29228,-47.98461 47.29228,-47.9846 z"
       id="rect8204"
       inkscape:export-filename="/home/ekleinod/working/internet/edgesoft.de/working/images/icon.png"
       inkscape:export-xdpi="90"
       inkscape:export-ydpi="90"
       inkscape:connector-curvature="0" />
    <text
       xml:space="preserve"
       style="font-style:normal;font-weight:normal;font-size:40px;line-height:125%;font-family:sans-serif;letter-spacing:0px;word-spacing:0px;fill:#000000;fill-opacity:1;stroke:none;stroke-width:1px;stroke-linecap:butt;stroke-linejoin:miter;stroke-opacity:1"
       x="80.533333"
       y="-33.333344"
       id="text3355"
       sodipodi:linespacing="125%"><tspan
         sodipodi:role="line"
         id="tspan3357"
         x="80.533333"
         y="-33.333344" /></text>
    <text
       xml:space="preserve"
       style="font-style:normal;font-variant:normal;font-weight:normal;font-stretch:normal;font-size:58.23327637px;line-height:125%;font-family:'Linux Libertine OC';-inkscape-font-specification:'Linux Libertine OC, Normal';text-align:start;letter-spacing:0px;word-spacing:0px;writing-mode:lr-tb;text-anchor:start;fill:#000000;fill-opacity:1;stroke:none;stroke-width:1px;stroke-linecap:butt;stroke-linejoin:miter;stroke-opacity:1;filter:url(#filter4396)"
       x="450.61688"
       y="-90.303131"
       id="text4392"
       sodipodi:linespacing="125%"><tspan
         sodipodi:role="line"
         x="450.61688"
         y="-90.303131"
         id="tspan4394">6</tspan></text>
    <text
       sodipodi:linespacing="125%"
       id="text3359"
       y="-90.303131"
       x="450.61688"
       style="font-style:normal;font-variant:normal;font-weight:normal;font-stretch:normal;font-size:58.23327637px;line-height:125%;font-family:'Linux Libertine OC';-inkscape-font-specification:'Linux Libertine OC, Normal';text-align:start;letter-spacing:0px;word-spacing:0px;writing-mode:lr-tb;text-anchor:start;fill:#000050;fill-opacity:1;stroke:none;stroke-width:1px;stroke-linecap:butt;stroke-linejoin:miter;stroke-opacity:1"
       xml:space="preserve"><tspan
         id="tspan3361"
         y="-90.303131"
         x="450.61688"
         sodipodi:role="line">6</tspan></text>
  </g>
  <g
     inkscape:groupmode="layer"
     id="layer3"
     inkscape:label="Ebene 3"
     transform="translate(7.4204426,-3.6639404e-6)">
    <path
       style="font-style:normal;font-variant:normal;font-weight:normal;font-stretch:normal;font-size:50px;line-height:125%;font-family:'Linux Libertine OC';-inkscape-font-specification:'Linux Libertine OC, Normal';text-align:start;letter-spacing:0px;word-spacing:0px;writing-mode:lr-tb;text-anchor:start;fill:#eeeeee;fill-opacity:1;stroke:none;stroke-width:1px;stroke-linecap:butt;stroke-linejoin:miter;stroke-opacity:1"
       d="m 299.5918,84.023438 c -0.35,0 -1.24922,0.349999 -1.69922,1.25 l -8.84961,19.199222 c -0.55,1.2 -1.24961,1.90039 -2.84961,1.90039 l -0.45117,0 c -0.2,0 -0.29883,0.10078 -0.29883,0.30078 l 0,1.04883 0.0488,0 c 0,0 2.55,-0.0488 3.5,-0.0488 0.95,0 5.40039,0.0488 5.40039,0.0488 l 0.0996,0 0,-1.04883 c 0,-0.2 -0.14961,-0.30078 -0.34961,-0.30078 l -1.09961,0 c -1.2,0 -1.80078,-0.35039 -1.80078,-0.90039 0,-0.2 0.0504,-0.44922 0.15039,-0.69922 l 2.25,-5.150393 c 0.2,-0.4 0.49922,-0.650391 1.44922,-0.650391 l 8.20117,0 2.25,5.800784 c 0.1,0.25 0.15039,0.44961 0.15039,0.59961 0,0.6 -0.65156,1 -1.85156,1 l -1.04883,0 c -0.2,0 -0.34961,0.10078 -0.34961,0.30078 l 0,1.04883 0.0996,0 c 0,0 4.4,-0.0488 5.75,-0.0488 1.55,0 4.5,0.0488 4.5,0.0488 l 0.15039,0 0,-1.04883 c 0,-0.2 -0.20039,-0.30078 -0.40039,-0.30078 l -0.40039,0 c -1.6,0 -2.34922,-0.74961 -2.94922,-2.09961 l -7.70117,-19.000002 c -0.4,-0.95 -1.30039,-1.25 -1.90039,-1.25 z m -32.01758,0.398437 c -0.0322,9.66e-4 -0.0638,9.86e-4 -0.0957,0.002 -1.65,0.05 -4.2504,0.249609 -4.6504,0.34961 l 0,1.048828 c 0,0.1 0.05,0.25 0.25,0.25 l 1.20118,-0.148438 0.29882,0 c 1,0 1.1504,0.648438 1.1504,1.648438 l 0,17.201177 c 0,1 -0.5504,1.59961 -2.1504,1.59961 l -1,0 c -0.19999,0 -0.3496,0.10078 -0.3496,0.30078 l 0,1 0.0996,0.0488 c 0,0 1.05233,-0.009 1.61133,-0.0156 l 3.63477,-3.6875 0,-19.597658 z m 0,19.597655 0,3.65625 c 1.67677,0.004 5.30469,0.0469 5.30469,0.0469 l 0.0488,-0.0488 0,-1 c 0,-0.2 -0.1496,-0.30078 -0.34961,-0.30078 l -1,0 c -1.55,0 -2.15039,-0.49961 -2.15039,-1.59961 l 0,-2.62891 -1.85351,1.875 z m -11.53711,-19.595702 -1.15039,0.148438 c 0,0 0.0508,0.651171 0.0508,0.701172 0,0.25 -0.15039,0.449218 -0.40039,0.449218 -0.31926,0 -1.02165,-0.40879 -2.20508,-0.792968 l 0,1.802734 c 0.27531,0.164896 0.54527,0.340172 0.80469,0.541016 1.5,1.149999 2.35,2.448828 2.75,4.298828 l 1.20117,-0.148438 -1.05078,-7 z m 59.63477,0.199219 -0.0996,0.150391 0,1 c 0,0.1 0.10039,0.199999 0.40039,0.25 l 1.15039,0 c 0.9,0 1.44922,-0.05078 1.44922,0.949218 l 0,0.25 -1.40039,17.050784 c -0.10001,0.95 -0.4004,2.04883 -1.6504,2.04883 l -1.04882,0 c -0.2,0 -0.34961,0.10078 -0.34961,0.30078 l 0,1.05078 0.0488,0.0488 3.4414,0 1.83594,-1.86328 c -0.19336,-0.27345 -0.27734,-0.65797 -0.27734,-1.13672 l 0,-0.44922 1.25,-15.300784 4.98437,10.841797 2.43164,-2.466797 -5.86523,-12.724609 -6.30078,0 z m 23.5,0 -1.00196,2.242187 2.20899,-2.242187 -1.20703,0 z m 10.97265,0 -0.0996,0.150391 0,1 c 0,0.1 0.10039,0.199999 0.40039,0.25 l 1.15039,0 c 0.9,0 1.44922,-0.05078 1.44922,0.949218 l 0,0.25 -0.18945,2.316406 1.83984,1.869141 0.19922,-2.435547 2.27149,4.941406 6.6875,6.787108 -7.40821,-16.078123 -6.30078,0 z m 23.5,0 -8.00391,17.890623 0.79883,0.81055 6.55469,-14.701173 1.55078,15.650393 0,0.40039 c 0,0.85 -0.25078,1.64844 -1.30078,1.64844 l -1.04883,0 c -0.2,0 -0.34961,0.10078 -0.34961,0.30078 l 0,1.09961 0.0996,0 4.79883,0 4.30078,0 0.0996,0 0,-1.09961 c 0,-0.2 -0.25039,-0.30078 -0.40039,-0.30078 l -1.04883,0 c -1.3,0 -1.60117,-0.94883 -1.70117,-2.04883 l -1.64844,-17.050784 0,-0.298828 c 0,-0.95 0.49922,-0.90039 1.44922,-0.90039 l 1.09961,0 c 0.1,0 0.40039,0 0.40039,-0.25 l 0,-1 -0.0996,-0.150391 -5.55078,0 z m -74.75195,3.449219 3.84961,9.5 -6.94922,0 c -1,0 -1.10117,-0.24961 -0.95117,-0.59961 l 4.05078,-8.90039 z m -16.86328,1.324218 -4.44532,4.496094 c -0.30612,0.462005 -0.68954,0.837657 -1.13086,1.144531 l -2.68554,2.716797 c 0.21772,0.0452 0.36373,0.100288 0.41015,0.169922 l 3.25,6.949222 c 0.85,1.85 3.30157,3.05078 5.60157,3.05078 0.65,0 1.29922,-0.0512 1.69922,-0.20117 l -0.1504,-0.75 c -1.55,0.2 -2.90039,-1.15 -3.65039,-2.75 l -3.34961,-7.449222 c 1.1,-0.2 4.55079,-2.401172 4.55079,-6.201172 0,-0.422736 -0.0399,-0.807612 -0.0996,-1.175782 z m -22.74219,7.376954 c 0,0 -2.25039,0.04883 -3.65039,0.04883 -0.90128,0 -2.00828,-0.01489 -3.30469,-0.0293 l 0,1.361328 c 0.85252,0.171659 1.20508,0.63015 1.20508,1.46875 l 0,5.099614 c -0.36235,0.34841 -0.77026,0.66514 -1.20508,0.94726 l 0,1.6836 c 1.84464,-0.62648 3.66014,-1.57811 5.35547,-2.78125 -0.3,-0.35 -0.40039,-0.65 -0.40039,-1 l 0,-3.949224 c 0,-1 0.34922,-1.550781 1.69922,-1.550781 l 0.0508,0 c 0.2,0 0.30078,-0.09883 0.30078,-0.298828 l 0,-0.951172 -0.0508,-0.04883 z"
       id="text4326"
       inkscape:connector-curvature="0" />
  </g>
</svg>
